<?xml version="1.0" encoding="UTF-8" standalone="no"?>
<!-- Generator: Adobe Illustrator 27.0.0, SVG Export Plug-In . SVG Version: 6.00 Build 0)  -->

<svg
   version="1.1"
   id="Layer_1"
   x="0px"
   y="0px"
   viewBox="0 0 257.63 506.52"
   style="enable-background:new 0 0 257.63 506.52;"
   xml:space="preserve"
   sodipodi:docname="princess-alt.svg"
   inkscape:version="1.2.2 (b0a8486, 2022-12-01)"
   xmlns:inkscape="http://www.inkscape.org/namespaces/inkscape"
   xmlns:sodipodi="http://sodipodi.sourceforge.net/DTD/sodipodi-0.dtd"
   xmlns="http://www.w3.org/2000/svg"
   xmlns:svg="http://www.w3.org/2000/svg"><defs
   id="defs406" /><sodipodi:namedview
   id="namedview404"
   pagecolor="#ffffff"
   bordercolor="#000000"
   borderopacity="0.25"
   inkscape:showpageshadow="2"
   inkscape:pageopacity="0.0"
   inkscape:pagecheckerboard="0"
   inkscape:deskcolor="#d1d1d1"
   showgrid="false"
   inkscape:zoom="0.77"
   inkscape:cx="70.779221"
   inkscape:cy="131.81818"
   inkscape:window-width="1390"
   inkscape:window-height="1099"
   inkscape:window-x="0"
   inkscape:window-y="25"
   inkscape:window-maximized="0"
   inkscape:current-layer="g401" />
<style
   type="text/css"
   id="style303">
	.st0{fill:none;}
	.st1{fill:#AAC5E1;}
	.st2{fill:#FDB913;}
	.st3{fill:#F0D0B4;}
	.st4{fill:#DFB28B;}
	.st5{fill:#CB8C84;}
	.st6{fill:#BE8B0E;}
	.st7{fill:#7F5D0A;}
	.st8{fill:#4B5B6D;}
	.st9{fill:#EAF0F8;}
	.st10{fill:#7089A3;}
	.st11{fill:#95B6DA;}
	.st12{fill:#ECC19C;}
	.st13{fill:#CF9E76;}
</style>
<g
   id="g401">
	
	
	
	
	
	
	
	
	
	
	
	
	
	
	
	
	
	
	
	
	
	
	
	
	
	
	
	
	
	
	
	
	
	
	
	
	
	<g
   id="g5800"><path
     class="st0"
     d="M179.2,335.88c-2.55,0-4.97-0.53-7.17-1.48c-0.05,0.14-0.09,0.29-0.14,0.43c-0.1,0.32-0.21,0.63-0.32,0.94   c6.29,2.8,12.2,6.75,17.76,11.62c-1.08-4.03-2.34-8.26-3.82-12.66C183.54,335.46,181.42,335.88,179.2,335.88z"
     id="path305" /><path
     class="st0"
     d="M127.17,320.47c-0.64-4.66-1.49-9.06-2.46-13.2c-0.06,0.07-0.13,0.15-0.19,0.22   c-1.38,1.38-3.09,2.25-4.87,2.61c-2.96,5.84-5.95,12.51-8.69,19.99c-2.64,7.2-4.61,13.97-6.1,20.13   c7.48-6.39,15.35-11.48,23.55-14.8c-0.06-1.89-0.15-3.82-0.3-5.82C127.9,326.67,127.6,323.63,127.17,320.47z"
     id="path307" /><path
     class="st0"
     d="M171.24,289.44l-0.12,0.1c0.02,0,0.04,0.01,0.06,0.01C171.21,289.51,171.22,289.47,171.24,289.44z"
     id="path309" /><path
     class="st1"
     d="M132.62,397.1c12.83-12.83,21.06-27.62,23.76-40.7c4.05,10.88,12.92,24.08,25.25,36.41   c20.13,20.13,42.61,31.07,53.45,26.77c-8.49-20.29-18.72-40.41-31.04-56.33c-2.74-0.59-6.64-1.22-9.72-2.28   c-0.57,0.93-1.24,1.96-1.85,3.07c-1.98,3.63-2.53,6.77-4.83,5.52s-2.58-5.22-0.6-8.84c0.7-1.28,1.59-2.34,2.54-3.13   c-0.15-0.46-0.18-0.95-0.05-1.5c0.19-0.78,0.67-1.6,1.38-2.43c-0.48-2.03-1-4.13-1.58-6.28c-5.55-4.87-11.47-8.82-17.76-11.62   c-0.08,0.23-0.16,0.47-0.23,0.69c-4.3,1.14-9.37,2.12-15.09,2.6c-0.07,0.01-0.14,0.01-0.22,0.02c-0.37,0.03-0.73,0.05-1.09,0.07   c-10.73,0.72-19.84-0.67-26.49-2.27h0c0-0.02,0-0.03,0-0.05c-0.01-0.46-0.03-0.94-0.05-1.41c-8.2,3.33-16.07,8.42-23.55,14.8   c-0.04,0.19-0.09,0.37-0.13,0.55c0.9-0.08,1.87-0.02,2.86,0.19c3.6,0.76,6.13,3.24,5.65,5.53c-0.48,2.29-2.94,0.84-6.54,0.08   c-1.11-0.23-2.19-0.37-3.16-0.52c-1.18,3-3.31,6.37-4.45,8.61c-2.17,4.25-6.39,4.05-10.39,2c-0.02-0.01-0.04-0.02-0.06-0.03   C78.08,379,68.5,393.58,60.09,408.64c1.09,2.39,2.54,4.55,4.39,6.41C78.34,428.9,108.85,420.87,132.62,397.1z"
     id="path311"
     style="fill:#c0e1aa;fill-opacity:1" /><path
     class="st2"
     d="M113.88,52.92c28.93-3.15,55.35,1.56,72.37,11.35c2.33-6.91,3.57-13.83,3.57-20.57   c0-34.63-30.98-43.7-81.94-43.7S4.09,24.1,4.09,58.72c0,14.95,11.46,33.92,28,49.44C29.39,82.86,65.99,58.13,113.88,52.92z"
     id="path313"
     style="fill:#66452e;fill-opacity:1" /><path
     class="st2"
     d="M54.78,154.43c-13.47-12.02-20.26-29.53-22.34-43.53c-22.93,7.45-36.81,20.22-31.2,39.85   c4.43,15.52,12.6,31.64,24.53,45.23c4.09-3.86,9.55-6.29,15.58-6.47C45.83,177.82,50.3,166.13,54.78,154.43z"
     id="path315"
     style="fill:#66452e;fill-opacity:1" /><path
     class="st2"
     d="M141.32,78.43c-38.71,0-85.82,11.7-93.4,28.48c-0.69,1.53-1.06,3.09-1.06,4.7c0,5.93,8.63,12.69,21.07,19.15   c1.95,1.01,3.98,2.02,6.1,3.01c21.11,9.92,49.66,18.68,67.31,22.02c3.65,0.69,6.84,1.15,9.4,1.34l1.83,0.58l0.87-0.49   c0.5-0.01,0.97-0.03,1.38-0.07c11.21-1.15,27.99-11.37,41.73-23.65c0.67-0.6,1.33-1.2,1.98-1.81   c12.19-11.33,21.52-24.08,21.52-33.01c0-7.8-6-12.61-15.94-15.56c-6.66-1.98-15.11-3.12-24.7-3.79   C168,78.54,154.97,78.43,141.32,78.43z"
     id="path317"
     style="fill:#66452e;fill-opacity:1" /><path
     class="st3"
     d="M99.09,364.65c1.14-2.23,3.27-5.61,4.45-8.61c0.96,0.15,2.05,0.29,3.16,0.52c3.6,0.76,6.06,2.21,6.54-0.08   c0.48-2.29-2.05-4.77-5.65-5.53c-1-0.21-1.97-0.26-2.86-0.19c0.04-0.18,0.09-0.37,0.13-0.55c1.49-6.16,3.46-12.93,6.1-20.13   c2.74-7.49,5.73-14.15,8.69-19.99c-3.04,0.61-6.32-0.26-8.68-2.61c-0.05-0.05-0.1-0.11-0.15-0.16c-3.19,5.42-6.82,12.93-9.2,22.37   c-1.93,7.65-2.52,14.47-2.57,19.91c-5.25,0.66-12.8,4.39-14.46,7.64c-2.16,4.23,0.09,7.34,4.06,9.39c0.02,0.01,0.04,0.02,0.06,0.03   C92.7,368.71,96.92,368.91,99.09,364.65z"
     id="path319"
     style="fill:#aa896c;fill-opacity:1" /><path
     class="st3"
     d="M185.51,334.73c1.48,4.39,2.74,8.63,3.82,12.66c0.58,2.15,1.1,4.25,1.58,6.28c-0.71,0.83-1.2,1.65-1.38,2.43   c-0.13,0.54-0.1,1.04,0.05,1.5c-0.96,0.79-1.84,1.85-2.54,3.13c-1.98,3.63-1.71,7.58,0.6,8.84s2.86-1.89,4.83-5.52   c0.61-1.11,1.28-2.14,1.85-3.07c3.08,1.06,6.97,1.69,9.72,2.28c0.3,0.07,0.59,0.13,0.86,0.19c5.21,1.24,8.1-2.49,9.28-7.4   s0.18-9.12-5.03-10.37c-2.78-0.66-7.83,0.94-12.13,3.33c-0.21-5.64-0.94-12.39-2.82-19.84c-0.08-0.31-0.17-0.61-0.25-0.91   C191.86,331.19,188.93,333.45,185.51,334.73z"
     id="path321"
     style="fill:#aa896c;fill-opacity:1" /><path
     class="st3"
     d="m 157.63,287.03 c 1.42,-0.55 3.25,-1.29 5.37,-2.26 10.6,-4.82 28.73,-15.28 42.42,-35.98 6.62,-10 10.55,-19.91 12.9,-28.46 0.14,-0.51 0.27,-1.01 0.4,-1.51 1.96,-7.56 2.69,-13.96 2.99,-18.27 0,-0.04 0.01,-0.08 0.01,-0.12 -0.46,-6.98 -1.53,-15.54 -3.85,-25.11 -0.81,-3.32 -1.76,-6.77 -2.9,-10.31 -4.58,-14.28 -10.6,-25.59 -15.74,-33.74 l -0.71,0.4 c -0.65,0.61 -1.31,1.21 -1.98,1.81 -13.74,12.29 -30.52,22.51 -41.73,23.65 -0.41,0.04 -0.88,0.06 -1.38,0.07 l -0.87,0.49 -1.83,-0.58 c -2.55,-0.19 -5.74,-0.65 -9.4,-1.34 -17.65,-3.34 -46.2,-12.11 -67.31,-22.02 -2.12,-0.99 -4.15,-2 -6.1,-3.01 l -3.366054,-1.84487 c -0.05,0.12 -0.363946,0.93487 -0.413946,1.05487 -3.12,8.16 -6.25,16.31 -9.37,24.47 -4.48,11.69 -8.96,23.39 -13.43,35.08 -6.03,0.18 -11.49,2.6 -15.58,6.47 -4.58,4.33 -7.44,10.45 -7.44,17.25 0,9.34 5.39,17.41 13.23,21.29 -0.8,-1.47 -1.25,-3.16 -1.25,-4.95 0,-5.13 3.71,-9.38 8.59,-10.25 0.6,-0.11 1.2,-0.17 1.83,-0.17 5.75,0 10.42,4.66 10.42,10.42 0,2.29 -0.75,4.4 -2,6.12 -0.06,0.09 -0.13,0.17 -0.19,0.26 0.1,-0.03 0.21,-0.06 0.31,-0.1 9.74,13.3 24.47,28.3 45.95,38.8 16.05,7.85 31.37,10.98 43.64,12.07 7.63,0.7 14.07,0.59 18.78,0.32 z m 59.23,-97.37 c 0.11,2.11 -0.43,4.14 -1.35,5.94 0.55,1.07 1.07,2.16 1.57,3.25 -0.06,0 -0.11,0.01 -0.17,0.01 -1.1,1.23 -2.4,2.61 -3.93,4.07 -1.42,1.35 -3.04,2.78 -4.85,4.22 -2.37,1.88 -5.1,3.79 -8.19,5.62 -0.53,0.31 -1.05,0.62 -1.6,0.93 -1.43,0.8 -2.85,1.52 -4.26,2.19 -1.11,0.52 -2.2,1.02 -3.27,1.46 -7.11,2.97 -13.47,4.33 -17.94,5.01 -0.08,0.01 -0.18,0.03 -0.26,0.05 v 0 0 c -0.43,-3.28 -0.6,-6.42 -0.55,-9.42 0.01,-3.83 0.31,-7.45 0.85,-10.83 2.73,-16.88 11.51,-27.66 19.66,-28.4 0.85,-0.08 1.7,-0.02 2.57,0.15 1.36,0.27 2.74,0.83 4.13,1.63 1.12,0.65 2.23,1.46 3.34,2.41 0.08,-1.19 0.05,-2.38 -0.09,-3.56 -0.21,-1.77 -0.68,-3.52 -1.47,-5.23 1.28,1.35 2.15,3.07 2.69,4.93 0.52,1.79 0.73,3.71 0.68,5.54 1.93,1.91 3.8,4.21 5.58,6.74 1.29,-2.48 2.04,-5.24 1.94,-8.32 1.19,3.31 0.65,7.06 -0.7,10.16 1.24,1.9 2.42,3.91 3.52,5.97 0.91,-1.32 1.63,-2.82 2.1,-4.52 z m -41.24,-31.38 c 6.55,-1.91 16.57,-2.98 24.68,-0.83 5.74,1.52 10.53,4.64 12.43,10.24 -2.33,-5.21 -7.1,-8 -12.57,-9.36 -6.14,-1.53 -13.16,-1.25 -18.64,-0.58 -3.88,0.5 -7.72,1.37 -11.52,2.42 1.84,-0.74 3.72,-1.34 5.62,-1.89 z m 0.98,70.92 c 0.33,4.84 -3,9.29 -7.98,9.29 2.9,-1.25 5.25,-3.73 5.81,-6.81 -3.45,0.32 -7.15,-1.33 -8.75,-4.4 3.19,2.51 7.18,3.14 10.92,1.92 z M 74.78,165.81 c 6.88,-9.73 25.2,-8.77 35.3,-5.83 1.9,0.56 3.78,1.16 5.61,1.89 -3.8,-1.05 -7.63,-1.91 -11.52,-2.42 -9.13,-1.13 -22.59,-1.13 -29.03,6.47 -0.86,1.01 -1.6,2.16 -2.18,3.46 0.45,-1.32 1.07,-2.51 1.82,-3.57 z m 29.72,60.13 c -18.22,-1.66 -31.63,-8.71 -38.71,-13.17 -0.19,-0.12 -0.39,-0.24 -0.57,-0.36 0.06,-0.39 0.13,-0.78 0.2,-1.16 -0.07,-0.05 -0.14,-0.1 -0.2,-0.14 0.08,-0.57 0.17,-1.14 0.27,-1.7 0.16,-0.92 0.36,-1.82 0.57,-2.71 -0.55,-0.4 -1.09,-0.83 -1.59,-1.29 -1.93,-1.79 -3.4,-4.05 -3.83,-6.62 0.62,1.09 1.35,2.05 2.16,2.92 1.12,1.18 2.4,2.17 3.8,2.98 0.62,-2.07 1.39,-4.05 2.29,-5.94 -0.41,-0.37 -0.81,-0.73 -1.2,-1.12 -2.8,-2.91 -4.85,-7.12 -4.16,-11.19 0.79,4.22 3.22,7.52 6.48,10.13 1.13,-2.04 2.43,-3.94 3.86,-5.7 -0.53,-1.1 -1.01,-2.22 -1.41,-3.39 -1.24,-3.84 -1.23,-8.52 1.17,-11.88 -1.26,4.62 -0.21,9.1 2.01,13.23 7.74,-8.24 18.78,-12.57 30.29,-10.69 5.76,0.94 10.98,3.34 15.42,6.79 2.96,2.3 5.57,5.07 7.75,8.2 3.54,5.08 5.96,11.09 6.9,17.55 0.31,2.1 0.45,4.25 0.44,6.43 0.03,1.94 -0.08,3.91 -0.38,5.89 -4.53,1.28 -10.7,2.62 -18.06,3.11 -4.12,0.27 -8.65,0.27 -13.5,-0.17 z m 23.61,38.89 c -3.58,-1.77 -6.86,-4.9 -7.74,-8.88 5.35,10.6 20.9,10.58 31.15,9.54 3.87,-0.44 7.71,-1.17 11.58,-2.03 -10.8,4.72 -23.99,6.56 -34.99,1.37 z"
     id="path323"
     style="fill:#aa896c;fill-opacity:1"
     sodipodi:nodetypes="ccccccccccccccccccccccccscscsscccccccccccccccccscsccccccscccccccccccccccccccccccccccccccccccccccccccccccsccccccccccc" /><path
     class="st4"
     d="M174.44,231.68c-0.57,3.08-2.91,5.56-5.81,6.81c4.98,0,8.31-4.45,7.98-9.29c-3.74,1.22-7.73,0.59-10.91-1.92   C167.29,230.35,170.99,231.99,174.44,231.68z"
     id="path325"
     style="fill:#886e56;fill-opacity:1;stroke:none;stroke-opacity:1" /><path
     class="st5"
     d="M151.53,265.5c-10.26,1.04-25.81,1.06-31.15-9.54c0.88,3.98,4.16,7.11,7.74,8.88   c10.99,5.19,24.19,3.35,34.99-1.36C159.24,264.33,155.4,265.06,151.53,265.5z"
     id="path327"
     style="stroke:#cb8c84;stroke-opacity:1" /><path
     class="st6"
     d="M200.16,158.32c5.47,1.36,10.24,4.15,12.57,9.36c-1.91-5.59-6.69-8.72-12.43-10.24   c-8.11-2.14-18.13-1.07-24.68,0.83c-1.9,0.56-3.78,1.16-5.61,1.89c3.8-1.05,7.63-1.91,11.52-2.42   C187,157.07,194.02,156.79,200.16,158.32z"
     id="path329"
     style="fill:#79632b;fill-opacity:1;stroke:#886e56;stroke-opacity:1" /><path
     class="st6"
     d="M104.17,159.45c3.88,0.5,7.72,1.37,11.52,2.42c-1.83-0.73-3.71-1.33-5.61-1.89   c-10.1-2.94-28.42-3.89-35.3,5.83c-0.75,1.06-1.37,2.24-1.82,3.57c0.58-1.3,1.32-2.45,2.18-3.46   C81.58,158.32,95.04,158.32,104.17,159.45z"
     id="path331"
     style="fill:#79632b;fill-opacity:1;stroke:#886e56;stroke-opacity:1" /><path
     class="st7"
     d="M66.47,206.97c0.21-0.68,0.45-1.34,0.7-2c0.72-1.91,1.61-3.74,2.63-5.47c0.42-0.72,0.87-1.42,1.34-2.1   c1.13-1.65,2.4-3.18,3.78-4.6c0.64-0.66,1.3-1.3,1.99-1.91c7.66-6.78,18.15-10.26,29.06-8.63c5.76,0.86,10.98,3.05,15.42,6.21   c2.96,2.1,5.57,4.64,7.75,7.5c3.54,4.64,5.96,10.14,6.9,16.05c0.27,1.67,0.41,3.37,0.44,5.09c0.01-2.18-0.13-4.33-0.44-6.43   c-0.95-6.46-3.36-12.47-6.9-17.55c-2.18-3.13-4.79-5.9-7.75-8.2c-4.44-3.45-9.67-5.85-15.42-6.79   c-11.5-1.88-22.54,2.45-30.29,10.69c-2.22-4.13-3.28-8.61-2.01-13.23c-2.4,3.36-2.41,8.04-1.17,11.88   c0.39,1.17,0.88,2.29,1.41,3.39c-1.43,1.76-2.73,3.66-3.86,5.7c-3.25-2.62-5.69-5.92-6.48-10.13c-0.69,4.07,1.36,8.28,4.16,11.19   c0.39,0.39,0.79,0.76,1.2,1.12c-0.9,1.89-1.67,3.87-2.29,5.94c-1.41-0.81-2.69-1.79-3.8-2.98c-0.82-0.86-1.55-1.83-2.16-2.92   c0.42,2.57,1.9,4.83,3.83,6.62c0.5,0.47,1.04,0.9,1.59,1.29c-0.22,0.89-0.41,1.79-0.57,2.71c-0.1,0.56-0.19,1.13-0.27,1.7   c0.06,0.04,0.14,0.09,0.2,0.14c0.06-0.33,0.12-0.65,0.19-0.98C65.85,209.15,66.13,208.05,66.47,206.97z"
     id="path333" /><path
     class="st7"
     d="M172.61,222.4c0.08-0.01,0.18-0.03,0.26-0.05C172.79,222.37,172.69,222.38,172.61,222.4   C172.61,222.4,172.61,222.4,172.61,222.4z"
     id="path335" /><path
     class="st7"
     d="M211.94,178.04c0.1,3.09-0.65,5.85-1.94,8.32c-1.78-2.54-3.65-4.83-5.58-6.74c0.06-1.84-0.15-3.75-0.68-5.54   c-0.54-1.86-1.41-3.58-2.69-4.93c0.79,1.71,1.26,3.46,1.47,5.23c0.14,1.18,0.16,2.37,0.09,3.56c-1.11-0.95-2.22-1.76-3.34-2.41   c-1.38-0.8-2.76-1.36-4.13-1.63c-0.87-0.17-1.72-0.23-2.57-0.15c-8.15,0.74-16.93,11.52-19.66,28.4   c-0.55,3.38-0.85,6.99-0.85,10.83c0.06-4.02,0.52-7.76,1.29-11.21c3.14-14.13,11.47-23.07,19.23-23.71   c0.14-0.01,0.28-0.01,0.42-0.02c0.6-0.03,1.21-0.01,1.82,0.06c2.44,0.27,4.95,1.27,7.4,2.84c0.65,0.42,1.3,0.87,1.94,1.37   c1.82,1.4,3.59,3.11,5.28,5.05c0.47,0.55,0.94,1.11,1.4,1.69c1.32,1.66,2.57,3.46,3.73,5.38c0.28,0.46,0.55,0.92,0.82,1.39   c0.55,0.96,1.08,1.95,1.59,2.95c-0.02,0.03-0.05,0.05-0.07,0.08c0.06,0,0.11-0.01,0.17-0.01c-0.5-1.09-1.02-2.18-1.57-3.25   c0.92-1.81,1.45-3.83,1.35-5.94c-0.47,1.7-1.19,3.2-2.09,4.51c-1.1-2.07-2.28-4.07-3.52-5.97   C212.59,185.1,213.13,181.35,211.94,178.04z"
     id="path337" /><path
     class="st7"
     d="M202.06,190.38c-0.02,0-0.03,0-0.05,0c-0.05,0-0.11,0.01-0.16,0.01c-0.19,0.01-0.38,0.04-0.56,0.08   c0.18-0.04,0.37-0.05,0.55-0.07C201.91,190.4,201.99,190.38,202.06,190.38z"
     id="path339" /><path
     class="st8"
     d="M128.11,195.88c-4.71,0-8.53,5.28-8.53,11.79c0,6.51,3.82,11.79,8.53,11.79c3.6,0,6.67-3.08,7.92-7.44   c-0.95-5.91-3.36-11.4-6.9-16.05C128.79,195.92,128.46,195.88,128.11,195.88z"
     id="path341"
     style="fill:#734a31;fill-opacity:1;stroke:#734a31;stroke-opacity:1" /><path
     class="st8"
     d="M208.86,202.32c0-0.15,0.02-0.29,0.02-0.44c0-0.83-0.05-1.64-0.15-2.42c-0.25-1.96-0.79-3.73-1.54-5.18   c-0.44-0.85-0.95-1.59-1.53-2.19c-1.03-1.08-2.24-1.72-3.54-1.72c-0.02,0-0.04,0-0.06,0c-0.08,0-0.15,0.02-0.22,0.03   c-0.19,0.01-0.37,0.03-0.55,0.07c-2.86,0.6-5.16,4.23-5.77,8.96c-0.05,0.36-0.08,0.73-0.11,1.11c-0.03,0.44-0.05,0.89-0.05,1.35   c0,0.2,0.01,0.39,0.01,0.58c0.01,0.35,0.03,0.7,0.06,1.04c0.08,0.97,0.23,1.9,0.44,2.78c0.64,2.64,1.85,4.78,3.37,5.99   c0.23,0.18,0.46,0.35,0.7,0.49c3.09-1.83,5.81-3.74,8.19-5.62c0.18-0.6,0.32-1.23,0.44-1.88   C208.73,204.33,208.84,203.35,208.86,202.32z"
     id="path343"
     style="fill:#734a31;fill-opacity:1;stroke:#734a31;stroke-opacity:1" /><path
     class="st9"
     d="M110.95,208.41c0-9.2,4.36-17.01,10.43-19.93c-4.44-3.15-9.67-5.35-15.42-6.21   c-10.91-1.63-21.4,1.85-29.06,8.63c-0.69,0.61-1.35,1.25-1.99,1.91c-1.38,1.42-2.65,2.96-3.78,4.6c-0.47,0.68-0.91,1.39-1.34,2.1   c-1.02,1.73-1.9,3.55-2.63,5.47c-0.25,0.66-0.48,1.32-0.7,2c-0.34,1.07-0.62,2.17-0.86,3.29c-0.07,0.32-0.13,0.65-0.19,0.98   c-0.07,0.39-0.15,0.77-0.2,1.16c0.18,0.11,0.38,0.24,0.57,0.36c7.08,4.46,20.49,11.51,38.71,13.17c4.85,0.44,9.38,0.44,13.53,0.16   c-0.01-0.01-0.01-0.01-0.02-0.02C113.76,222.3,110.95,215.8,110.95,208.41z"
     id="path345" /><path
     class="st9"
     d="M215.39,195.82c-0.27-0.47-0.54-0.93-0.82-1.39c-1.17-1.91-2.42-3.71-3.73-5.38c-0.46-0.58-0.93-1.15-1.4-1.69   c-1.69-1.94-3.47-3.65-5.28-5.05c-0.64-0.5-1.29-0.95-1.94-1.37c-2.46-1.58-4.96-2.58-7.4-2.84c-0.61-0.07-1.21-0.09-1.82-0.06   c-0.14,0.01-0.28,0.01-0.42,0.02c-7.76,0.64-16.1,9.58-19.23,23.71c-0.76,3.44-1.22,7.19-1.29,11.21c-0.05,3,0.12,6.15,0.55,9.42   c0,0,0,0,0,0c0.08-0.01,0.18-0.03,0.26-0.04c4.48-0.68,10.83-2.04,17.94-5.01c-0.08-0.12-0.15-0.26-0.24-0.39   c-1.61-2.54-2.78-5.73-3.33-9.29c-0.02-0.14-0.05-0.28-0.07-0.42c-0.01-0.09-0.02-0.18-0.03-0.27c-0.05-0.38-0.08-0.76-0.12-1.14   c-0.03-0.35-0.06-0.7-0.08-1.05c-0.01-0.17-0.01-0.33-0.02-0.5c-0.01-0.23-0.02-0.46-0.02-0.7c0-0.14-0.01-0.28-0.01-0.43   c0-10.98,5.84-19.89,13.04-19.89c0.57,0,1.12,0.07,1.67,0.18c0.76,0.15,1.5,0.38,2.21,0.71c1.85,0.88,3.51,2.38,4.91,4.32   c0.46,0.64,0.89,1.31,1.28,2.03c1.01,1.88,1.81,4.05,2.32,6.41c0.17,0.8,0.31,1.62,0.41,2.46c0.07,0.56,0.13,1.13,0.17,1.71   c0.04,0.6,0.07,1.21,0.07,1.82c1.53-1.46,2.84-2.84,3.93-4.07c0.02-0.03,0.05-0.05,0.07-0.08   C216.47,197.77,215.94,196.79,215.39,195.82z"
     id="path347" /><path
     class="st10"
     d="M172.02,334.4c-1.13-0.49-2.2-1.1-3.2-1.8c-3.39,3.95-8.42,6.51-13.82,6.44c-5.53,0.08-10.68-2.61-14.08-6.73   c-0.53-0.07-1.09-0.13-1.61-0.21c-4.38-0.65-8.16-1.59-11.2-2.51c0,0,0,0.01,0,0.01c0.14,2,0.23,3.93,0.3,5.82   c0.02,0.47,0.04,0.95,0.05,1.41c0,0.02,0,0.03,0,0.05c0,0,0,0,0,0c6.65,1.6,15.76,2.99,26.49,2.27c0.36-0.02,0.72-0.04,1.09-0.07   c0.07-0.01,0.14-0.01,0.22-0.02c5.71-0.47,10.78-1.46,15.09-2.6c0.08-0.23,0.16-0.46,0.23-0.69c0.11-0.31,0.21-0.62,0.32-0.94   C171.94,334.69,171.98,334.54,172.02,334.4z"
     id="path349"
     style="fill:#82a370;fill-opacity:1" /><path
     class="st10"
     d="M172.02,334.4c-0.05,0.14-0.09,0.29-0.13,0.43C171.94,334.69,171.98,334.54,172.02,334.4   C172.02,334.4,172.02,334.4,172.02,334.4z"
     id="path351" /><path
     class="st10"
     d="M171.89,334.83c0.05-0.14,0.09-0.29,0.14-0.43c0,0,0,0,0,0C171.98,334.54,171.94,334.69,171.89,334.83z"
     id="path353" /><g
     id="g371">
		<path
   class="st11"
   d="M235.08,419.59c-10.84,4.3-33.32-6.64-53.45-26.77c-12.33-12.33-21.2-25.53-25.25-36.41    c-2.69,13.08-10.93,27.87-23.76,40.7c-23.77,23.77-54.28,31.8-68.14,17.94c-1.85-1.85-3.3-4.01-4.39-6.41    c-14.7,26.32-25.87,54.11-32.57,74.21c25.41,10.81,73.08,26.97,133.73,23.09c41.35-2.64,74.42-13.68,96.37-23.09    C251.95,465.35,244.6,442.36,235.08,419.59z"
   id="path355"
   style="fill:#b0da95;fill-opacity:1" />
		<path
   class="st11"
   d="M128.46,336.88L128.46,336.88C128.46,336.88,128.46,336.88,128.46,336.88c0-0.02,0-0.03,0-0.05    C128.46,336.85,128.46,336.86,128.46,336.88z"
   id="path357" />
		<path
   class="st11"
   d="M233.19,210.93c0-2.24-0.71-4.31-1.92-6.01c-1.89-2.67-4.99-4.41-8.5-4.41c-0.36,0-0.71,0.02-1.05,0.05    c-0.3,4.31-1.03,10.71-2.99,18.27c-0.13,0.5-0.26,1-0.4,1.51c1.35,0.64,2.85,1.01,4.45,1.01    C228.53,221.35,233.19,216.68,233.19,210.93z"
   id="path359"
   style="fill:#b3da95;fill-opacity:1" />
		<path
   class="st11"
   d="m 32.1,108.21 c 0.1,0.88 0.21,1.78 0.35,2.69 2.07,14 8.87,31.51 22.34,43.53 3.12,-8.16 6.25,-16.31 9.37,-24.47 0.05,-0.12 0.09,-0.25 0.14,-0.37 l 0.558102,-0.62065 C 53.993294,121.1981 46.87,117.53 46.87,111.6 c 0,-1.6 0.37,-3.17 1.06,-4.7 7.58,-16.78 54.69,-28.48 93.4,-28.48 13.64,0 26.67,0.11 38.08,0.9 9.59,0.66 18.04,1.81 24.7,3.79 C 201.3,75.72 195.03,69.32 186.25,64.27 169.23,54.48 142.81,49.78 113.88,52.92 65.99,58.13 29.39,82.85 32.1,108.16 c -0.01,0.02 -0.01,0.04 0,0.05 z"
   id="path361"
   style="fill:#acda95;fill-opacity:1"
   sodipodi:nodetypes="ccccccscscccccc" />
		<path
   class="st11"
   d="M40.73,239.99c3.35,0,6.32-1.59,8.22-4.04c0.07-0.08,0.13-0.17,0.19-0.26c1.25-1.72,2-3.83,2-6.12    c0-5.75-4.66-10.42-10.42-10.42c-0.63,0-1.24,0.06-1.83,0.17c-4.88,0.87-8.59,5.12-8.59,10.25c0,1.79,0.45,3.47,1.25,4.95    C33.32,237.78,36.77,239.99,40.73,239.99z"
   id="path363"
   style="fill:#b3da95;fill-opacity:1" />
		<path
   class="st11"
   d="M128.11,195.88c0.34,0,0.68,0.04,1.02,0.09c-2.18-2.86-4.79-5.39-7.75-7.5    c-6.07,2.92-10.43,10.73-10.43,19.93c0,7.4,2.81,13.9,7.07,17.68c0.01,0.01,0.01,0.01,0.02,0.02c7.36-0.49,13.52-1.83,18.06-3.11    c0.3-1.98,0.41-3.95,0.38-5.89c-0.03-1.72-0.17-3.42-0.44-5.09c-1.25,4.35-4.32,7.44-7.92,7.44c-4.71,0-8.53-5.28-8.53-11.79    C119.58,201.16,123.4,195.88,128.11,195.88z"
   id="path365"
   style="fill:#92664c;fill-opacity:1" />
		<path
   class="st11"
   d="M201.61,183.45c-0.55-0.11-1.1-0.18-1.67-0.18c-7.2,0-13.04,8.9-13.04,19.89c0,0.14,0.01,0.28,0.01,0.43    c0,0.23,0.01,0.46,0.02,0.7c0.01,0.17,0.01,0.34,0.02,0.5c0.02,0.35,0.05,0.71,0.08,1.05c0.03,0.38,0.07,0.77,0.12,1.14    c0.01,0.09,0.02,0.18,0.03,0.27c0.02,0.14,0.05,0.28,0.07,0.42c0.54,3.56,1.71,6.75,3.33,9.29c0.08,0.13,0.15,0.26,0.24,0.39    c1.08-0.45,2.17-0.94,3.27-1.46c1.4-0.66,2.82-1.39,4.26-2.19c0.55-0.3,1.07-0.62,1.6-0.93c-0.24-0.14-0.47-0.31-0.7-0.49    c-1.51-1.22-2.72-3.35-3.37-5.99c-0.21-0.88-0.36-1.81-0.44-2.78c-0.03-0.34-0.05-0.69-0.06-1.04c-0.01-0.19-0.01-0.39-0.01-0.58    c0-0.46,0.02-0.9,0.05-1.35c0.03-0.38,0.06-0.75,0.11-1.11c0.6-4.72,2.91-8.36,5.77-8.96c0.18-0.04,0.37-0.07,0.56-0.08    c0.05,0,0.11-0.01,0.16-0.01c0.02,0,0.03,0,0.05,0c0.02,0,0.04,0,0.06,0c1.3,0,2.51,0.64,3.54,1.72c0.57,0.6,1.08,1.34,1.53,2.19    c0.75,1.45,1.29,3.22,1.54,5.18c0.1,0.78,0.15,1.59,0.15,2.42c0,0.15-0.01,0.29-0.02,0.44c-0.02,1.02-0.13,2.01-0.3,2.95    c-0.12,0.65-0.26,1.28-0.44,1.88c1.81-1.44,3.43-2.86,4.85-4.22c0-0.62-0.03-1.22-0.07-1.82c-0.04-0.58-0.1-1.15-0.17-1.71    c-0.11-0.84-0.24-1.66-0.41-2.46c-0.51-2.37-1.3-4.53-2.32-6.41c-0.39-0.73-0.83-1.4-1.28-2.03c-1.39-1.94-3.06-3.45-4.91-4.32    C203.11,183.82,202.37,183.59,201.61,183.45z"
   id="path367"
   style="fill:#92664c;fill-opacity:1" />
		<path
   class="st11"
   d="M170.43,330.44c-0.48,0.76-1.02,1.48-1.61,2.16c1,0.7,2.07,1.31,3.2,1.8c0,0,0,0,0,0    c2.2,0.95,4.62,1.48,7.17,1.48c2.22,0,4.34-0.42,6.31-1.15c3.42-1.27,6.35-3.54,8.43-6.47c2.11-2.96,3.37-6.58,3.37-10.49    c0-7.25-4.27-13.49-10.42-16.38c0.59-1.84,0.54-3.89-0.28-5.8c-1.81-4.19-9.3-9.63-13.49-7.82c-0.79,0.34-1.4,0.91-1.87,1.64    l0.01,0l-0.02,0.01c-0.02,0.03-0.04,0.07-0.06,0.11c-0.02,0-0.04-0.01-0.06-0.01l5.74,10.29l3.97,7.11l4.13,7.4l-7.26,0.65    l-1.59,0.14l-2.93,0.26c0,0.02,0.01,0.05,0.01,0.07c0,0-0.49,0-0.78,0c-0.01,0-0.03,0-0.04,0l-11.21,1l-8.26,0.73l-8.56-11.36    l-9.48-12.58l-7.88-3.8l-0.37-0.18l0.12-0.02l3.04-0.63c-1.17,0.1-2.32,0.21-3.46,0.32c-4.09-2.46-11.87,1.51-15.35,4.99    c-3.69,3.69-3.74,9.64-0.15,13.4c0.05,0.05,0.09,0.11,0.15,0.16c2.36,2.36,5.64,3.23,8.68,2.61c1.79-0.36,3.49-1.23,4.87-2.61    c0.07-0.07,0.13-0.15,0.19-0.22c0.97,4.14,1.82,8.55,2.46,13.2c0.43,3.16,0.74,6.2,0.95,9.13c0,0,0-0.01,0-0.01    c3.04,0.92,6.82,1.86,11.2,2.51c0.52,0.08,1.07,0.14,1.61,0.21c-2.7-3.28-4.29-7.46-4.03-11.88c0,0,0,0,0,0    c0.11,4.57,2.08,8.83,5.15,12.03c3.34,3.48,7.98,5.69,12.96,5.58c5.12,0.11,9.87-2.22,13.23-5.87c0.43-0.47,0.85-0.96,1.23-1.48    c0,0,0,0,0,0c2.19-2.93,3.56-6.49,3.65-10.26C173.32,324.05,172.29,327.5,170.43,330.44    C170.43,330.44,170.43,330.44,170.43,330.44z"
   id="path369"
   style="fill:#a6da95;fill-opacity:1" />
	</g><path
     class="st10"
     d="M136.89,320.43c-0.26,4.42,1.33,8.6,4.03,11.88c0.16,0.02,0.33,0.04,0.49,0.06   C138.61,329.18,136.89,325.01,136.89,320.43z"
     id="path373" /><path
     class="st10"
     d="M155,339.04c5.4,0.08,10.43-2.49,13.82-6.44c-0.09-0.06-0.17-0.13-0.26-0.19c-3.32,3.75-8.16,6.13-13.56,6.13   c-5.42,0-10.27-2.39-13.59-6.16c-0.16-0.02-0.33-0.04-0.49-0.06C144.32,336.43,149.47,339.11,155,339.04z"
     id="path375"
     style="fill:#83a370;fill-opacity:1" /><path
     class="st10"
     d="M170.03,330.54C170.03,330.54,170.03,330.54,170.03,330.54c0.13-0.03,0.27-0.07,0.4-0.1c0,0,0,0,0,0   C170.29,330.47,170.16,330.51,170.03,330.54z"
     id="path377" /><path
     class="st10"
     d="M170.43,330.44c1.86-2.94,2.89-6.39,2.69-10.02c0,3.75-1.14,7.23-3.09,10.12   C170.16,330.51,170.29,330.47,170.43,330.44z"
     id="path379" /><path
     class="st10"
     d="M170.03,330.54c-0.44,0.66-0.94,1.27-1.47,1.86c0.09,0.06,0.17,0.13,0.26,0.19c0.59-0.68,1.13-1.4,1.61-2.16   C170.29,330.47,170.16,330.51,170.03,330.54z"
     id="path381" /><path
     class="st10"
     d="M142.04,332.45c-3.07-3.2-5.05-7.46-5.15-12.03c0,0,0,0,0,0c0,4.58,1.72,8.76,4.52,11.95   C141.62,332.4,141.83,332.43,142.04,332.45z"
     id="path383"
     style="fill:#82a370;fill-opacity:1" /><path
     class="st10"
     d="M155,338.04c-4.98,0.11-9.62-2.1-12.96-5.58c-0.21-0.02-0.42-0.05-0.63-0.08c3.32,3.77,8.17,6.16,13.59,6.16   c5.4,0,10.24-2.38,13.56-6.13c-0.11-0.08-0.22-0.16-0.32-0.24C164.88,335.81,160.12,338.15,155,338.04z"
     id="path385"
     style="fill:#81a370;fill-opacity:1" /><path
     class="st10"
     d="M169.47,330.68C169.47,330.68,169.47,330.68,169.47,330.68c0.19-0.05,0.37-0.09,0.56-0.14c0,0,0,0,0,0   C169.84,330.59,169.66,330.64,169.47,330.68z"
     id="path387" /><path
     class="st10"
     d="M173.11,320.42c-0.09,3.77-1.45,7.33-3.65,10.26c0.19-0.05,0.37-0.09,0.56-0.14   C171.98,327.65,173.11,324.17,173.11,320.42z"
     id="path389"
     style="fill:#82a370;fill-opacity:1" /><path
     class="st10"
     d="M169.47,330.68c-0.39,0.51-0.8,1.01-1.23,1.48c0.11,0.08,0.22,0.16,0.32,0.24c0.52-0.59,1.02-1.21,1.47-1.86   C169.84,330.59,169.66,330.64,169.47,330.68z"
     id="path391"
     style="fill:#82a370;fill-opacity:1" /><g
     id="g397"
     style="fill:#cf9e76;fill-opacity:1">
		<path
   class="st12"
   d="M217.88,175.33c2.32,9.57,3.39,18.14,3.85,25.11c0,0.04-0.01,0.08-0.01,0.12c0.35-0.03,0.7-0.05,1.05-0.05    c3.51,0,6.62,1.75,8.5,4.41c0.82-2.4,1.27-4.98,1.27-7.66C232.55,187.37,226.49,178.89,217.88,175.33z"
   id="path393"
   style="fill:#9f8064;fill-opacity:1" />
		<path
   class="st12"
   d="M176.86,299.82l-5.74-10.29l0.12-0.1l0.02-0.01l-0.01,0l-8.25-4.64c-2.12,0.96-3.95,1.71-5.37,2.26    c-4.71,0.27-11.15,0.38-18.77-0.3l-9.1,1.88l-3.04,0.63l-0.12,0.02l0.37,0.18l7.88,3.8l9.48,12.58l8.56,11.36l8.26-0.73l11.21-1    c-0.1,0-0.18,0-0.18,0c-0.01-0.33-0.05-0.65-0.09-0.97c-0.49-3.7-2.83-6.42-5.92-8.29c-0.19-0.12-0.39-0.23-0.59-0.34    c-1.02-0.57-2.11-1.05-3.24-1.45c-2.8-1-5.82-1.49-8.48-1.55c2.67-0.06,5.68,0.32,8.52,1.2c0.34,0.11,0.68,0.22,1.02,0.34    c0.87,0.31,1.71,0.68,2.52,1.09c1.66,0.85,3.15,1.92,4.35,3.24c0.46-2.91,2.7-5.81,5.8-5.66c-3.24,0.19-5.1,3.61-4.89,6.55    c0,0-0.07,0-0.17,0c1.21,1.61,1.99,3.52,2.17,5.78l2.93-0.26l1.59-0.14l7.26-0.65l-4.13-7.4L176.86,299.82z"
   id="path395"
   style="fill:#9f8064;fill-opacity:1" />
	</g><path
     class="st13"
     d="M171.01,309.59c0.1,0,0.17,0,0.17,0c-0.21-2.93,1.65-6.36,4.89-6.55c-3.1-0.15-5.34,2.75-5.8,5.66   c-1.2-1.31-2.69-2.38-4.35-3.24c-0.81-0.41-1.65-0.78-2.52-1.09c-0.34-0.12-0.67-0.23-1.02-0.34c-2.84-0.88-5.85-1.26-8.52-1.2   c2.67,0.06,5.68,0.55,8.48,1.55c1.12,0.4,2.22,0.88,3.24,1.45c0.2,0.11,0.4,0.23,0.59,0.34c3.09,1.87,5.42,4.59,5.92,8.29   c0.04,0.32,0.08,0.64,0.09,0.97c0,0,0.07,0,0.18,0c0.01,0,0.03,0,0.04,0c0.29,0,0.78,0,0.78,0c0-0.02-0.01-0.05-0.01-0.07   C173.01,313.12,172.22,311.2,171.01,309.59z"
     id="path399"
     style="fill:#886e56;fill-opacity:1;stroke:#886e56;stroke-opacity:1" /></g>
</g>
</svg>
