<?xml version="1.0" encoding="utf-8"?>

<!DOCTYPE svg PUBLIC "-//W3C//DTD SVG 1.1//EN" "http://www.w3.org/Graphics/SVG/1.1/DTD/svg11.dtd">
<svg version="1.1" id="Layer_1" xmlns="http://www.w3.org/2000/svg" xmlns:xlink="http://www.w3.org/1999/xlink" x="0px" y="0px"
	 viewBox="0 0 1008.131 1628.738" enable-background="new 0 0 1008.131 1628.738" xml:space="preserve">
<path d="M633.241,730.119c-16.585-34.552-24.082-25.527-20.89-40.503c5.323-24.936,40.335-70.209,45.529-85.305
	c4.345-12.622,6.164-15.432,10.745-16.58c5.242-1.316,7.271-5.225,7.281-14.044c0.034-19.543,7.305-12.556-2.395-31.454
	c-12.362-24.129-31.391-37.107-56.448-86.535c-24.075-47.481-30.45-51.866-65.391-118.174
	c-62.012-23.643-60.006-23.195-71.329-29.559c0-25.398-1.405-25.717,10.639-27.637c27.73-4.414,45.007-57.442,43.812-80.841
	c-0.665-13.037-0.521-13.743,3.111-15.398c4.382-1.997,5.033-4.482,1.175-4.482c-1.888,0-2.278-0.809-1.384-2.864
	c2.647-6.089,0.773-23.202,5.855-29.679c8.739-11.11-6.781-22.904-9.374-43.165c-1.443-11.307-3.885-15.751-11.91-21.661
	c-3.885-2.864-6.678-6.277-6.702-8.189c-0.058-4.961-16.073-23.717-20.273-23.744c-6.88-0.045-10.121-1.95-15.621-9.186
	c-7.932-10.438-13.045-10.034-19.03-15.494c-2.813-2.563-4.29-2.782-9.35-1.384c-11.246,3.112-5.596,9.351-18.392-1.723
	c-9.114-7.891-12.475-8.854-27.205-7.798c-8.549,0.613-14.044,2.165-22.066,6.236c-14.555,7.387-18.992,14.822-19.969,33.461
	c-1.822,34.652,11.702,46.106,17.957,52.81l-2.015,15.418c-5.476,41.829,11.658,23.462,9.162,52.344
	c-1.186,13.767,0.61,19.657,7.74,25.338c14.954,11.924,4.943,18.241,13.472,22.124c4.691,2.138,4.65,1.813,2.392,18.814
	c-18.537,139.685-70.019,34.369-90.924,164.172c-4.643,28.837-39.828,82.629-46.598,92.484c-4.375,6.369-10.312,8.296-15.493,13.732
	c-3.719,3.902-2.954,7.236-3.837,11.949c-2.661,14.189-13.274,10.751-13.274,28.732c0,10.683,3.474,25.745,8.206,35.572
	c5.316,11.053,13.679,9.155,23.803,22.422c20.232,26.529,68.004,56.736,83.304,69.982c7.801,6.754,12.627,10.113,16.254,12.756
	c-29.252,61.545-14.391,40.531-30.95,70.661C216.463,993.57,16.238,1479.367,23.439,1494.468
	c5.278,11.078,20.376,13.223,51.066,27.475c22.875,10.625,82.67,35.335,108.62,33.177c59.797-4.955,49.075,12.844,78.818,30.89
	c25.44,15.435,56.786,15.879,85.03,22.904c25.338,6.301,32.653,6.801,47.459,3.248c28.871-6.927,58.962-9.516,88.323-13.588
	c69.871-9.691,65.801-16.757,80.335-12.308c10.423,3.191,20.585,2.567,30.985,5.479c40.903,11.431,47.237,15.961,94.097,4.482
	c43.35-10.611,45.99-4.594,81.101-25.728c16.43-9.888,28.992-12.502,37.501-19.311c32.591-26.112,52.093-0.963,132.531-47.42
	c10.806-6.241,43.898-22.475,43.898-22.475c1.824-1.81,2.217,2.145-32.873-69.74c-49.56-101.531-191.979-412.685-279.028-600.194
	C658.711,784.236,646.177,757.079,633.241,730.119z M398.556,627.024c-2.906,16.299-5.469,19.451-9.769,12.013
	c-14.613-25.305-39.433-44.747-50.134-60.68c-6.709-10.001-6.764-10.204-5.828-21.552c0.997-12.068,4.745-24.772,10.889-36.898
	c3.981-7.867,27.476-42.469,28.832-42.469C390.987,477.438,407.739,575.506,398.556,627.024z M603.895,598.641
	c-25.288,54.126-23.556,52.669-23.556,52.669c-1.151,4.927-5.9,6.243-5.9,1.638c-0.004-1.576-2.289-7.651-5.081-13.5
	c-9.282-19.44-1.099-18.012-7.932-51.193c-9.292-45.097-7.791-75.835,4.602-94.279c2.217-3.303,11.149,2.601,21.579,14.264
	c8.069,9.021,24.478,38.683,24.464,44.213c-0.007,1.494-1.823,5.664-4.043,9.261C603.46,569.136,603.986,571.522,603.895,598.641z"
	/>
</svg>
